<?xml version="1.0" encoding="utf-8"?>
<!-- Generator: Adobe Illustrator 25.1.0, SVG Export Plug-In . SVG Version: 6.00 Build 0)  -->
<svg version="1.1" xmlns="http://www.w3.org/2000/svg" xmlns:xlink="http://www.w3.org/1999/xlink" x="0px" y="0px"
	 viewBox="0 0 1094 630" style="enable-background:new 0 0 1094 630;" xml:space="preserve">
<style type="text/css">
	.st0{display:none;}
	.st1{display:none;opacity:0.2;fill:#494B9A;enable-background:new    ;}
	.st2{opacity:0.2;fill:#494B9A;enable-background:new    ;}
	.st3{fill:#494B9A;}
	.st4{clip-path:url(#SVGID_2_);}
	.st5{fill-rule:evenodd;clip-rule:evenodd;fill:#FFFFFF;}
	.st6{clip-path:url(#SVGID_4_);}
	.st7{clip-path:url(#SVGID_6_);}
	.st8{clip-path:url(#SVGID_8_);}
</style>
<g id="Слой_5" class="st0">
	<image style="display:inline;overflow:visible;" width="1094" height="630" xlink:href="G:\WEB\Tests\img\rectangle.jpg" >
	</image>
</g>
<g id="Слой_3" class="st0">
</g>
<g id="Слой_4" class="st0">
	
		<image style="display:inline;overflow:visible;" width="1065" height="800" xlink:href="../Downloads/Rectangle 134.jpg"  transform="matrix(1.0272 0 0 0.921 0 -106.7647)">
	</image>
</g>
<g id="Слой_2">
	<circle class="st1" cx="415.1" cy="217.1" r="24.5"/>
	<circle class="st1" cx="335" cy="393.6" r="24.5"/>
	<circle class="st1" cx="403.4" cy="606.8" r="24.5"/>
	<circle class="st1" cx="523.2" cy="396.5" r="24.5"/>
	<circle class="st1" cx="673.2" cy="512.7" r="24.5"/>
	<circle class="st1" cx="677.6" cy="323" r="24.5"/>
	<circle class="st1" cx="881.3" cy="436.2" r="24.5"/>
	<circle class="st2" cx="740.2" cy="263.8" r="15.3"/>
	<circle class="st3" cx="740.2" cy="263.8" r="9.3"/>
	<g>
		<defs>
			<rect id="SVGID_1_" x="736.5" y="260.1" width="7.5" height="7.5"/>
		</defs>
		<clipPath id="SVGID_2_">
			<use xlink:href="#SVGID_1_"  style="overflow:visible;"/>
		</clipPath>
		<g class="st4">
			<path class="st5" d="M736.5,263.2c-0.3,0-0.6,0.3-0.6,0.6c0,0.3,0.3,0.6,0.6,0.6h3.1v3.1c0,0.3,0.3,0.6,0.6,0.6
				c0.3,0,0.6-0.3,0.6-0.6v-3.1h3.1c0.3,0,0.6-0.3,0.6-0.6c0-0.3-0.3-0.6-0.6-0.6h-3.1v-3.1c0-0.3-0.3-0.6-0.6-0.6
				c-0.3,0-0.6,0.3-0.6,0.6v3.1H736.5z"/>
		</g>
	</g>
	<circle class="st2" cx="326.5" cy="133.8" r="15.3"/>
	<circle class="st3" cx="326.5" cy="133.8" r="9.3"/>
	<g>
		<defs>
			<rect id="SVGID_3_" x="322.8" y="130.1" width="7.5" height="7.5"/>
		</defs>
		<clipPath id="SVGID_4_">
			<use xlink:href="#SVGID_3_"  style="overflow:visible;"/>
		</clipPath>
		<g class="st6">
			<path class="st5" d="M322.8,133.2c-0.3,0-0.6,0.3-0.6,0.6c0,0.3,0.3,0.6,0.6,0.6h3.1v3.1c0,0.3,0.3,0.6,0.6,0.6s0.6-0.3,0.6-0.6
				v-3.1h3.1c0.3,0,0.6-0.3,0.6-0.6c0-0.3-0.3-0.6-0.6-0.6h-3.1v-3.1c0-0.3-0.3-0.6-0.6-0.6s-0.6,0.3-0.6,0.6v3.1H322.8z"/>
		</g>
	</g>
	<circle class="st2" cx="667.7" cy="584.8" r="15.3"/>
	<circle class="st3" cx="667.7" cy="584.8" r="9.3"/>
	<g>
		<defs>
			<rect id="SVGID_5_" x="663.9" y="581.1" width="7.5" height="7.5"/>
		</defs>
		<clipPath id="SVGID_6_">
			<use xlink:href="#SVGID_5_"  style="overflow:visible;"/>
		</clipPath>
		<g class="st7">
			<path class="st5" d="M663.9,584.2c-0.3,0-0.6,0.3-0.6,0.6s0.3,0.6,0.6,0.6h3.1v3.1c0,0.3,0.3,0.6,0.6,0.6c0.3,0,0.6-0.3,0.6-0.6
				v-3.1h3.1c0.3,0,0.6-0.3,0.6-0.6s-0.3-0.6-0.6-0.6h-3.1v-3.1c0-0.3-0.3-0.6-0.6-0.6c-0.3,0-0.6,0.3-0.6,0.6v3.1H663.9z"/>
		</g>
	</g>
	<circle class="st2" cx="984.7" cy="539" r="15.3"/>
	<circle class="st3" cx="984.7" cy="539" r="9.3"/>
	<g>
		<defs>
			<rect id="SVGID_7_" x="981" y="535.3" width="7.5" height="7.5"/>
		</defs>
		<clipPath id="SVGID_8_">
			<use xlink:href="#SVGID_7_"  style="overflow:visible;"/>
		</clipPath>
		<g class="st8">
			<path class="st5" d="M981,538.4c-0.3,0-0.6,0.3-0.6,0.6c0,0.3,0.3,0.6,0.6,0.6h3.1v3.1c0,0.3,0.3,0.6,0.6,0.6s0.6-0.3,0.6-0.6
				v-3.1h3.1c0.3,0,0.6-0.3,0.6-0.6c0-0.3-0.3-0.6-0.6-0.6h-3.1v-3.1c0-0.3-0.3-0.6-0.6-0.6s-0.6,0.3-0.6,0.6v3.1H981z"/>
		</g>
	</g>
</g>
</svg>
