<svg width="50" height="50" viewBox="0 0 50 50" fill="none" xmlns="http://www.w3.org/2000/svg">
<circle opacity="0.2" cx="25.2128" cy="25.2134" r="24.5455" transform="rotate(90 25.2128 25.2134)" fill="#5A30F0"/>
<circle cx="25.2129" cy="25.2134" r="15" transform="rotate(90 25.2129 25.2134)" fill="#5A30F0"/>
<g clip-path="url(#clip0)">
<path fill-rule="evenodd" clip-rule="evenodd" d="M19.2129 24.2134C18.6606 24.2134 18.2129 24.6611 18.2129 25.2134C18.2129 25.7657 18.6606 26.2134 19.2129 26.2134L24.2129 26.2134L24.2129 31.2134C24.2129 31.7657 24.6606 32.2134 25.2129 32.2134C25.7652 32.2134 26.2129 31.7657 26.2129 31.2134L26.2129 26.2134L31.2129 26.2134C31.7652 26.2134 32.2129 25.7657 32.2129 25.2134C32.2129 24.6611 31.7652 24.2134 31.2129 24.2134L26.2129 24.2134L26.2129 19.2134C26.2129 18.6611 25.7652 18.2134 25.2129 18.2134C24.6606 18.2134 24.2129 18.6611 24.2129 19.2134L24.2129 24.2134L19.2129 24.2134Z" fill="white"/>
</g>
<defs>
<clipPath id="clip0">
<rect width="12" height="12" fill="white" transform="translate(19.2129 31.2134) rotate(-90)"/>
</clipPath>
</defs>
</svg>
